<svg width="128" height="128" viewBox="0 0 128 128" preserveAspectRatio="xMidYMid meet" xmlns="http://www.w3.org/2000/svg" xmlns:xlink="http://www.w3.org/1999/xlink"><g transform="translate(0, 0) scale(1) translate(0, 0)">
<g transform="translate(0, 0) scale(0.540084) translate(0, 0)">

    <!-- Generated by PaintCode - http://www.paintcodeapp.com -->
    <g>
        <g>
            <circle stroke="none" fill="rgb(201, 12, 125)" cx="56.75" cy="54.6" r="31.3" />
        </g>
        <g>
            <path fill-rule="evenodd" stroke="none" fill="rgb(201, 12, 125)" d="M 195.43,68.76 C 175.91,69.11 164.62,85.97 164.65,100.04 164.67,114.09 173.93,117.22 175.29,140.65 175.67,169.2 139.1,188.91 118.39,189.18 37.25,190.23 16.71,123.66 16.53,104.89 16.44,95.8 8.69,95.12 8.87,105.12 9.98,166.76 59.31,213.65 118.64,212.92 183.34,212.12 229.14,160.37 227.3,99.08 226.8,82.58 212.78,68.45 195.43,68.76 Z M 195.43,68.76" />
        </g>
    </g>

</g>
</g></svg>
