<svg width="128" height="128" viewBox="0 0 128 128" preserveAspectRatio="xMidYMid meet" xmlns="http://www.w3.org/2000/svg" xmlns:xlink="http://www.w3.org/1999/xlink" id="communicationCanvas"><g transform="translate(0, 0) scale(1) translate(0, 0)">
<g transform="translate(0, 0) scale(1) translate(0, 0)">

    <!-- Generated by PaintCode - http://www.paintcodeapp.com -->
    <g id="communicationCanvas-group">
        <path id="communicationCanvas-bezier" stroke="none" fill="rgb(0, 0, 0)" d="M 104.2,0.33 L 65.93,0.33 65.93,0.33 C 62.92,0.33 60.47,2.78 60.47,5.8 L 60.47,44.07 60.47,44.07 C 60.47,47.08 62.92,49.53 65.93,49.53 L 104.2,49.53 104.2,49.53 C 107.22,49.53 109.67,47.08 109.67,44.07 L 109.67,5.8 109.67,5.8 C 109.67,2.78 107.22,0.33 104.2,0.33 Z M 98.74,38.6 L 71.4,38.6 71.4,11.26 98.74,11.26 98.74,38.6 Z M 98.74,38.6" />
        <path id="communicationCanvas-bezier2" stroke="none" fill="rgb(0, 0, 0)" d="M 93.27,55 L 55,55 55,16.73 55,16.73 C 55,13.71 52.55,11.26 49.53,11.26 L 5.8,11.26 5.8,11.26 C 2.78,11.26 0.33,13.71 0.33,16.73 L 0.33,104.2 0.33,104.2 C 0.33,107.22 2.78,109.67 5.8,109.67 L 93.27,109.67 93.27,109.67 C 96.29,109.67 98.74,107.22 98.74,104.2 L 98.74,60.47 98.74,60.47 C 98.74,57.45 96.29,55 93.27,55 Z M 11.26,22.2 L 44.07,22.2 44.07,55 11.26,55 11.26,22.2 Z M 11.26,65.93 L 44.07,65.93 44.07,98.74 11.26,98.74 11.26,65.93 Z M 87.8,98.74 L 55,98.74 55,65.93 87.8,65.93 87.8,98.74 Z M 87.8,98.74" />
    </g>

</g>
</g></svg>
