<?xml version="1.0" encoding="UTF-8"?>
<!DOCTYPE svg PUBLIC "-//W3C//DTD SVG 1.1//EN" "http://www.w3.org/Graphics/SVG/1.1/DTD/svg11.dtd">
<svg version="1.1" xmlns="http://www.w3.org/2000/svg" xmlns:xlink="http://www.w3.org/1999/xlink" width="752" height="365"  xml:space="preserve" id="towerwithsignalemissionsvgrepocomCanvas">
    <!-- Generated by PaintCode - http://www.paintcodeapp.com -->
    <g id="towerwithsignalemissionsvgrepocomCanvas-group">
    </g>
    <ellipse id="towerwithsignalemissionsvgrepocomCanvas-oval" stroke="none" fill="rgb(0, 0, 0)" cx="376" cy="182.59" rx="77.18" ry="77.18" />
    <path id="towerwithsignalemissionsvgrepocomCanvas-bezier2" stroke="none" fill="rgb(0, 0, 0)" d="M 530.35,277.13 C 536.13,281.63 543.21,283.56 549.64,283.56 559.29,283.56 568.94,279.06 575.37,270.7 594.66,244.98 604.95,214.75 604.95,182.59 604.95,149.79 594.02,118.28 573.44,92.55 562.51,78.4 541.93,76.47 528.42,87.41 514.28,98.34 512.34,118.92 523.28,132.43 534.85,146.58 540.64,163.94 540.64,182.59 540.64,200.6 534.85,217.32 523.92,231.47 512.98,246.26 516.2,266.2 530.35,277.13 Z M 530.35,277.13" />
    <path id="towerwithsignalemissionsvgrepocomCanvas-bezier3" stroke="none" fill="rgb(0, 0, 0)" d="M 649.97,356.88 C 655.76,361.38 662.84,363.31 669.27,363.31 678.91,363.31 688.56,358.81 694.99,350.45 732.29,302.21 751.59,244.33 751.59,183.24 751.59,120.21 731.01,61.04 691.78,12.16 680.84,-1.99 660.26,-3.92 646.76,7.02 632.61,17.95 630.68,38.53 641.61,52.04 671.2,89.34 687.27,135 687.27,183.24 687.27,230.18 672.48,274.56 644.18,311.22 633.25,326.01 635.82,346.59 649.97,356.88 Z M 649.97,356.88" />
    <path id="towerwithsignalemissionsvgrepocomCanvas-bezier4" stroke="none" fill="rgb(0, 0, 0)" d="M 223.58,87.41 C 209.43,76.47 189.49,78.4 178.56,92.55 158.62,118.28 147.05,149.79 147.05,182.59 147.05,214.75 157.34,244.98 176.63,270.7 183.06,279.06 192.71,283.56 202.36,283.56 209.43,283.56 215.86,281.63 221.65,277.13 235.8,266.2 238.37,246.26 227.44,232.11 216.5,217.96 210.72,201.24 210.72,183.24 210.72,164.58 216.5,147.22 228.08,133.07 239.66,118.92 237.73,98.34 223.58,87.41 Z M 223.58,87.41" />
    <path id="towerwithsignalemissionsvgrepocomCanvas-bezier5" stroke="none" fill="rgb(0, 0, 0)" d="M 105.24,7.66 C 91.09,-3.27 71.16,-1.34 60.22,12.8 20.99,61.68 0.41,120.85 0.41,183.88 0.41,244.98 19.71,302.86 57.01,351.09 63.44,359.45 73.09,363.96 82.73,363.96 89.81,363.96 96.24,362.03 102.03,357.52 116.18,346.59 118.75,326.65 107.82,312.5 79.52,275.2 64.73,230.83 64.73,184.52 64.73,136.29 80.8,91.27 110.39,53.32 121.32,38.53 119.39,18.59 105.24,7.66 Z M 105.24,7.66" />
</svg>
