<?xml version="1.0" encoding="UTF-8"?>
<!DOCTYPE svg PUBLIC "-//W3C//DTD SVG 1.1//EN" "http://www.w3.org/Graphics/SVG/1.1/DTD/svg11.dtd">
<svg version="1.1" xmlns="http://www.w3.org/2000/svg" xmlns:xlink="http://www.w3.org/1999/xlink" width="1024" height="1024"  xml:space="preserve" id="deleteCanvas">
    <g id="deleteCanvas-group">
        <path id="deleteCanvas-p1" stroke="none" fill="rgb(255, 255, 255)" d="M 850.09,341.33 C 824.51,341.33 807.45,358.4 807.45,384 L 807.45,887.47 C 807.45,921.6 781.87,938.67 756.29,938.67 L 261.71,938.67 C 227.6,938.67 210.55,913.07 210.55,887.47 L 210.55,384 C 210.55,358.4 193.49,341.33 167.91,341.33 142.33,341.33 125.27,358.4 125.27,384 L 125.27,887.47 C 125.27,964.27 184.96,1024 261.71,1024 L 747.76,1024 C 824.51,1024 884.2,964.27 884.2,887.47 L 884.2,384 C 892.73,358.4 875.67,341.33 850.09,341.33 Z M 850.09,341.33" />
        <path id="deleteCanvas-p2" stroke="none" fill="rgb(255, 255, 255)" d="M 440.78,810.67 L 440.78,384 C 440.78,358.4 423.73,341.33 406.67,341.33 389.62,341.33 355.51,358.4 355.51,384 L 355.51,810.67 C 355.51,836.27 372.56,853.33 398.15,853.33 423.73,853.33 440.78,836.27 440.78,810.67 Z M 440.78,810.67" />
        <path id="deleteCanvas-p3" stroke="none" fill="rgb(255, 255, 255)" d="M 662.49,810.67 L 662.49,384 C 662.49,358.4 636.91,341.33 611.33,341.33 585.75,341.33 577.22,358.4 577.22,384 L 577.22,810.67 C 577.22,836.27 594.27,853.33 611.33,853.33 628.38,853.33 662.49,836.27 662.49,810.67 Z M 662.49,810.67" />
        <path id="deleteCanvas-p4" stroke="none" fill="rgb(255, 255, 255)" d="M 935.36,170.67 L 722.18,170.67 722.18,110.93 C 722.18,51.2 671.02,-0 611.33,-0 L 406.67,-0 C 346.98,-0 295.82,51.2 295.82,110.93 L 295.82,170.67 82.64,170.67 C 57.05,170.67 40,187.73 40,213.33 40,238.93 57.05,256 82.64,256 L 935.36,256 C 960.95,256 978,238.93 978,213.33 978,187.73 960.95,170.67 935.36,170.67 Z M 381.09,110.93 C 381.09,93.87 389.62,85.33 406.67,85.33 L 611.33,85.33 C 628.38,85.33 636.91,93.87 636.91,110.93 L 636.91,170.67 381.09,170.67 381.09,110.93 Z M 381.09,110.93" />
    </g>
</svg>
