<?xml version="1.0" encoding="UTF-8"?>
<!DOCTYPE svg PUBLIC "-//W3C//DTD SVG 1.1//EN" "http://www.w3.org/Graphics/SVG/1.1/DTD/svg11.dtd">
<svg version="1.1" xmlns="http://www.w3.org/2000/svg" xmlns:xlink="http://www.w3.org/1999/xlink" width="34" height="34"  xml:space="preserve" id="find">
    <!-- Generated by PaintCode - http://www.paintcodeapp.com -->
    <path id="find-bezier" stroke="rgb(86, 86, 86)" stroke-width="1" stroke-miterlimit="10" fill="rgb(86, 86, 86)" d="M 11.96,10.7 C 11.72,10.7 11.49,10.72 11.26,10.75 9.03,11.06 7.32,12.84 7.32,14.99 7.32,17.37 9.4,19.29 11.96,19.29 14.53,19.29 16.61,17.37 16.61,14.99 16.61,12.62 14.53,10.7 11.96,10.7 Z M 14.85,8.84 C 15.74,9.18 16.53,9.66 17.2,10.29 18.87,11.83 19.58,14 19.19,16.09 L 29.5,19.97 28.39,22.5 18.11,18.63 C 17.34,19.72 16.23,20.57 14.91,21.09 13.15,21.77 11.21,21.78 9.44,21.11 8.56,20.77 7.77,20.29 7.09,19.66 5.05,17.77 4.44,14.94 5.53,12.47 6.26,10.83 7.62,9.55 9.38,8.86 L 9.58,8.79 C 11.29,8.18 13.15,8.2 14.85,8.84 Z M 14.85,8.84" />
</svg>
