<?xml version="1.0" encoding="UTF-8"?>
<!DOCTYPE svg PUBLIC "-//W3C//DTD SVG 1.1//EN" "http://www.w3.org/Graphics/SVG/1.1/DTD/svg11.dtd">
<svg version="1.1" xmlns="http://www.w3.org/2000/svg" xmlns:xlink="http://www.w3.org/1999/xlink" width="128" height="128"  xml:space="preserve" id="saveCanvas">
    <g id="saveCanvas-group" transform="translate(64, 61.97) rotate(-180)" >
        <g id="saveCanvas-group2">
            <path id="saveCanvas-bezier" stroke="none" fill="rgb(255, 255, 255)" d="M -25.73,4.7 L -25.6,4.83 -3.9,23.9 C -1.41,26.14 2.37,26.08 4.86,23.84 L 25.92,4.77 C 28.54,2.27 28.67,-1.89 26.18,-4.51 23.74,-7.07 19.71,-7.26 17.09,-4.96 L 6.66,4.45 6.66,-54.94 C 6.66,-58.59 3.71,-61.54 0.06,-61.54 -3.58,-61.54 -6.53,-58.59 -6.53,-54.94 L -6.53,4.06 -16.96,-5.09 C -19.65,-7.52 -23.81,-7.26 -26.24,-4.58 -28.67,-1.89 -28.48,2.27 -25.73,4.7 Z M -25.73,4.7" />
            <path id="saveCanvas-bezier2" stroke="none" fill="rgb(255, 255, 255)" d="M 57.15,14.56 C 53.38,14.56 50.3,17.63 50.3,21.41 L 50.3,47.9 -50.37,47.9 -50.37,21.41 C -50.37,17.63 -53.44,14.56 -57.22,14.56 -60.99,14.56 -64,17.63 -64,21.41 L -64,48.67 C -64,55.78 -57.79,61.54 -50.18,61.54 L 50.18,61.54 C 57.79,61.54 64,55.78 64,48.67 L 64,21.41 C 64,17.63 60.93,14.56 57.15,14.56 Z M 57.15,14.56" />
        </g>
    </g>
</svg>
