<svg width="128" height="128" viewBox="0 0 128 128" preserveAspectRatio="xMidYMid meet" xmlns="http://www.w3.org/2000/svg" xmlns:xlink="http://www.w3.org/1999/xlink"><g transform="translate(0, 0) scale(1) translate(0, 0)">
<g transform="translate(0, 0) scale(0.16) translate(0, 0)">

  <g>
        <g>
            <g>
                <path stroke="none" fill="rgb(255, 255, 255)" d="M 399.98,-0 C 179.42,-0 0.01,179.44 0.01,400 0.01,620.57 179.42,800 399.98,800 620.55,800 799.99,620.56 799.99,400 799.99,179.44 620.55,-0 399.98,-0 Z M 399.98,715.32 C 226.13,715.32 84.7,573.86 84.7,400 84.7,226.15 226.13,84.69 399.98,84.69 573.84,84.69 715.3,226.15 715.3,400 715.3,573.86 573.84,715.32 399.98,715.32 Z M 399.98,715.32" />
              <rect stroke="none" fill="rgb(255, 255, 255)" x="334.7" y="361.15" width="130.6" height="290.1" rx="24.6" />
              <circle stroke="none" fill="rgb(255, 255, 255)" cx="400" cy="221.12" r="72.35" />
            </g>
        </g>
    </g>

</g>
</g></svg>
