<?xml version="1.0" encoding="UTF-8"?>
<!DOCTYPE svg PUBLIC "-//W3C//DTD SVG 1.1//EN" "http://www.w3.org/Graphics/SVG/1.1/DTD/svg11.dtd">
<svg version="1.1" xmlns="http://www.w3.org/2000/svg" xmlns:xlink="http://www.w3.org/1999/xlink" width="128" height="128"  xml:space="preserve" id="matrixCanvas">
    <!-- Generated by PaintCode - http://www.paintcodeapp.com -->
    <g id="matrixCanvas-group">
        <g id="matrixCanvas-group2">
            <g id="matrixCanvas-communicationCanvasgroup">
                <path id="matrixCanvas-bezier" stroke="none" fill="rgb(0, 0, 0)" d="M 88,11 L 55,11 55,44 88,44 88,11 Z M 44.07,11.2 L 11.26,11.2 11.26,44 44.07,44 44.07,11.2 Z M 87.8,54.93 L 55,54.93 55,87.74 87.8,87.74 87.8,54.93 Z M 44.07,54.93 L 11.26,54.93 11.26,87.74 44.07,87.74 44.07,54.93 Z M 48.74,0.26 L 49.53,0.26 C 49.63,0.26 49.73,0.26 49.83,0.27 56.62,0.32 92.94,0.59 92.94,0.59 95.96,0.59 98.41,3.04 98.41,6.06 98.41,6.06 98.68,42.38 98.73,49.17 98.74,49.27 98.74,49.37 98.74,49.47 98.74,49.47 98.74,49.75 98.74,50.26 98.74,56.17 98.74,93.2 98.74,93.2 98.74,96.22 96.29,98.67 93.27,98.67 L 5.8,98.67 C 2.78,98.67 0.33,96.22 0.33,93.2 L 0.33,5.73 C 0.33,3.39 1.8,1.4 3.86,0.61 4.47,0.38 5.12,0.26 5.8,0.26 L 48.74,0.26 Z M 48.74,0.26" />
            </g>
        </g>
    </g>
</svg>
