<svg width="128" height="128" viewBox="0 0 128 128" preserveAspectRatio="xMidYMid meet" xmlns:xlink="http://www.w3.org/1999/xlink" xmlns="http://www.w3.org/2000/svg"><g transform="translate(0, 0) scale(1) translate(0, 0)">
<g transform="translate(0, 0) scale(0.5) translate(0, 0)">

  <path d="M239.3,131.4c-22,47.2-41.4,69.3-61.3,69.3-25.1,0-40.7-33.7-57.3-69.3-13-28.2-27.8-60.1-42.7-60.1s-36.3,37.6-46.7,60.1a8.1,8.1,0,1,1-14.6-6.8C38.7,77.4,58.1,55.3,78,55.3c25.1,0,40.7,33.7,57.3,69.3,13,28.2,27.8,60.1,42.7,60.1,16.4,0,36.3-37.6,46.7-60.1a8.1,8.1,0,0,1,14.6,6.8Z"/>

</g>
</g></svg>