<svg width="128" height="128" viewBox="0 0 128 128" preserveAspectRatio="xMidYMid meet" xmlns:xlink="http://www.w3.org/1999/xlink" class="svg-icon" style="width: 1em; height: 1em;vertical-align: middle;fill: currentColor;overflow: hidden;" xmlns="http://www.w3.org/2000/svg"><g transform="translate(0, 0) scale(1) translate(0, 0)">
<g transform="translate(0, 0) scale(0.125) translate(0, 0)">

  <path d="M384 192H224a64 64 0 0 0-64 64v512a64 64 0 0 0 64 64h160a64 64 0 0 0 64-64V256a64 64 0 0 0-64-64z m416 0h-160a64 64 0 0 0-64 64v512a64 64 0 0 0 64 64h160a64 64 0 0 0 64-64V256a64 64 0 0 0-64-64z"
        fill="#231F20"/>

</g>
</g></svg>