<svg width="128" height="128" viewBox="0 0 128 128" preserveAspectRatio="xMidYMid meet" xmlns="http://www.w3.org/2000/svg" xmlns:xlink="http://www.w3.org/1999/xlink"><g transform="translate(0, 0) scale(1) translate(0, 0)">
<g transform="translate(0, 0) scale(0.125) translate(0, 0)">

    <!-- Generated by PaintCode - http://www.paintcodeapp.com -->
  <path stroke="rgb(255, 255, 255)" stroke-width="90" stroke-miterlimit="4" fill="none" d="M 512,960 L 512,960 C 759.42,960 960,759.42 960,512 960,264.58 759.42,64 512,64 L 512,64 C 264.58,64 64,264.58 64,512 64,759.42 264.58,960 512,960 Z M 512,960" />
  <path stroke="rgb(255, 255, 255)" stroke-width="90" stroke-miterlimit="4" fill="none" d="M 462.34,706.24 L 462.33,706.24 C 438.35,721.23 406.76,713.93 391.78,689.95 386.7,681.82 384,672.42 384,662.82 L 384,399.55 384,399.58 C 384,371.3 406.92,348.38 435.2,348.38 444.79,348.38 454.2,351.07 462.33,356.16 L 672.9,487.81 672.85,487.78 C 696.83,502.76 704.12,534.35 689.14,558.33 685.02,564.93 679.45,570.5 672.85,574.62 L 462.34,706.24 Z M 462.34,706.24" />

</g>
</g></svg>
