<svg width="128" height="128" viewBox="0 0 128 128" preserveAspectRatio="xMidYMid meet" xmlns:xlink="http://www.w3.org/1999/xlink" class="svg-icon" style="width: 1em; height: 1em;vertical-align: middle;fill: currentColor;overflow: hidden;" xmlns="http://www.w3.org/2000/svg"><g transform="translate(0, 0) scale(1) translate(0, 0)">
<g transform="translate(0, 0) scale(0.125) translate(0, 0)">

  <path d="M128 213.333333l85.333333 0 0-85.333333c-47.146667 0-85.333333 38.186667-85.333333 85.333333zM128 554.666667l85.333333 0 0-85.333333-85.333333 0 0 85.333333zM298.666667 896l85.333333 0 0-85.333333-85.333333 0 0 85.333333zM128 384l85.333333 0 0-85.333333-85.333333 0 0 85.333333zM554.666667 128l-85.333333 0 0 85.333333 85.333333 0 0-85.333333zM810.666667 128l0 85.333333 85.333333 0c0-47.146667-38.186667-85.333333-85.333333-85.333333zM213.333333 896l0-85.333333-85.333333 0c0 47.146667 38.186667 85.333333 85.333333 85.333333zM128 725.333333l85.333333 0 0-85.333333-85.333333 0 0 85.333333zM384 128l-85.333333 0 0 85.333333 85.333333 0 0-85.333333zM469.333333 896l85.333333 0 0-85.333333-85.333333 0 0 85.333333zM810.666667 554.666667l85.333333 0 0-85.333333-85.333333 0 0 85.333333zM810.666667 896c47.146667 0 85.333333-38.186667 85.333333-85.333333l-85.333333 0 0 85.333333zM810.666667 384l85.333333 0 0-85.333333-85.333333 0 0 85.333333zM810.666667 725.333333l85.333333 0 0-85.333333-85.333333 0 0 85.333333zM640 896l85.333333 0 0-85.333333-85.333333 0 0 85.333333zM640 213.333333l85.333333 0 0-85.333333-85.333333 0 0 85.333333zM298.666667 725.333333l426.666667 0 0-426.666667-426.666667 0 0 426.666667zM384 384l256 0 0 256-256 0 0-256z"/>

</g>
</g></svg>