<?xml version="1.0"?>
<svg version="1.1" xmlns="http://www.w3.org/2000/svg" xmlns:xlink="http://www.w3.org/1999/xlink" width="100" height="100">
    <desc iVinci="yes" version="4.4" gridStep="20" showGrid="no" snapToGrid="no" codePlatform="0"/>
    <g id="Layer1">
        <g id="Shape1">
            <desc type="0" basicInfo-basicType="0" basicInfo-roundedRectRadius="12" basicInfo-polygonSides="6" basicInfo-starPoints="5" bounding="rect(-10,-10,20,20)" text="" font-familyName="" font-pixelSize="20" font-bold="0" font-underline="0" font-alignment="1" strokeStyle="0" markerStart="0" markerEnd="0" shadowEnabled="0" shadowOffsetX="0" shadowOffsetY="2" shadowBlur="4" shadowOpacity="160" blurEnabled="0" blurRadius="4" transform="matrix(4.3,0,0,4.3,50,50)" pers-center="0,0" pers-size="0,0" pers-start="0,0" pers-end="0,0" locked="0" mesh="" flag=""/>
            <path id="shapePath1" d="M50,7 C26.2518,7 7,26.2518 7,50 C7,73.7482 26.2518,93 50,93 C73.7482,93 93,73.7482 93,50 C93,26.2518 73.7482,7 50,7 M50,84.4 C31.0014,84.4 15.6,68.9986 15.6,50 C15.6,31.0014 31.0014,15.6 50,15.6 C68.9986,15.6 84.4,31.0014 84.4,50 C84.4,68.9986 68.9986,84.4 50,84.4 M65.222,59.116 C66.036,59.9234 66.4939,61.0225 66.4939,62.169 C66.4939,63.3155 66.036,64.4146 65.222,65.222 C64.4105,66.0269 63.312,66.4756 62.169,66.469 C61.026,66.4756 59.9275,66.0269 59.116,65.222 L46.947,53.053 C46.5555,52.6441 46.2487,52.1618 46.044,51.634 C45.8237,51.117 45.7068,50.5619 45.7,50 L45.7,32.8 C45.7,30.4252 47.6252,28.5 50,28.5 C52.3748,28.5 54.3,30.4252 54.3,32.8 L54.3,48.237 L65.222,59.116 " style="stroke:none;fill-rule:nonzero;fill:#ffffff;fill-opacity:1;"/>
        </g>
    </g>
</svg>
