<?xml version="1.0" encoding="UTF-8"?>
<!DOCTYPE svg PUBLIC "-//W3C//DTD SVG 1.1//EN" "http://www.w3.org/Graphics/SVG/1.1/DTD/svg11.dtd">
<svg version="1.1" xmlns="http://www.w3.org/2000/svg" xmlns:xlink="http://www.w3.org/1999/xlink" width="100" height="100"  xml:space="preserve" id="timeCanvas">
    <!-- Generated by PaintCode - http://www.paintcodeapp.com -->
    <path id="timeCanvas-shapePath1" stroke="none" fill="rgb(255, 255, 255)" d="M 50,-0 C 22.39,-0 0,22.39 0,50 0,77.61 22.39,100 50,100 77.61,100 100,77.61 100,50 100,22.39 77.61,-0 50,-0 Z M 50,90 C 27.91,90 10,72.09 10,50 10,27.91 27.91,10 50,10 72.09,10 90,27.91 90,50 90,72.09 72.09,90 50,90 Z M 67.7,60.6 C 68.65,61.54 69.18,62.82 69.18,64.15 69.18,65.48 68.65,66.76 67.7,67.7 66.76,68.64 65.48,69.16 64.15,69.15 62.82,69.16 61.54,68.64 60.6,67.7 L 46.45,53.55 C 45.99,53.07 45.64,52.51 45.4,51.9 45.14,51.3 45.01,50.65 45,50 L 45,30 C 45,27.24 47.24,25 50,25 52.76,25 55,27.24 55,30 L 55,47.95 67.7,60.6 Z M 67.7,60.6" />
</svg>
