<svg width="128" height="128" viewBox="0 0 128 128" preserveAspectRatio="xMidYMid meet" xmlns="http://www.w3.org/2000/svg" xmlns:xlink="http://www.w3.org/1999/xlink"><g transform="translate(0, 0) scale(1) translate(0, 0)">
<g transform="translate(0, 0) scale(5.333333) translate(0, 0)">

    <!-- Generated by PaintCode - http://www.paintcodeapp.com -->
  <path stroke="rgb(255, 0, 0)" stroke-width="2" stroke-linecap="round" stroke-linejoin="round" stroke-miterlimit="4" fill="none" fill-opacity="0" d="M 3,21 L 7,21 20,8 20,8 C 21.1,6.9 21.1,5.1 20,4 18.9,2.9 17.1,2.9 16,4 L 3,17 3,21 Z M 3,21" />
  <path stroke="rgb(255, 0, 0)" stroke-width="2" stroke-linecap="round" stroke-linejoin="round" stroke-miterlimit="4" fill="none" fill-opacity="0" d="M 14.5,5.5 L 18.5,9.5" />
  <path stroke="rgb(255, 0, 0)" stroke-width="2" stroke-linecap="round" stroke-linejoin="round" stroke-miterlimit="4" fill="none" fill-opacity="0" d="M 12,8 L 7,3 3,7 8,12" />
  <path stroke="rgb(255, 0, 0)" stroke-width="2" stroke-linecap="round" stroke-linejoin="round" stroke-miterlimit="4" fill="none" fill-opacity="0" d="M 7,8 L 5.5,9.5" />
  <path stroke="rgb(255, 0, 0)" stroke-width="2" stroke-linecap="round" stroke-linejoin="round" stroke-miterlimit="4" fill="none" fill-opacity="0" d="M 16,12 L 21,17 17,21 12,16" />
  <path stroke="rgb(255, 0, 0)" stroke-width="2" stroke-linecap="round" stroke-linejoin="round" stroke-miterlimit="4" fill="none" fill-opacity="0" d="M 16,17 L 14.5,18.5" />

</g>
</g></svg>
