<svg width="128" height="128" viewBox="0 0 128 128" preserveAspectRatio="xMidYMid meet" xmlns:xlink="http://www.w3.org/1999/xlink" class="svg-icon" style="width: 1em;height: 1em;vertical-align: middle;fill: currentColor;overflow: hidden;" xmlns="http://www.w3.org/2000/svg"><g transform="translate(0, 0) scale(1) translate(0, 0)">
<g transform="translate(0, 0) scale(0.125) translate(0, 0)">

  <path d="M449.645714 906.496c17.554286 0 30.427429-13.275429 30.427429-29.988571V147.492571c0-16.713143-12.854857-29.988571-30.427429-29.988571-17.152 0-29.988571 13.275429-29.988571 29.988571v729.014858c0 16.713143 12.836571 29.988571 29.988571 29.988571z m249.417143-85.705143c17.152 0 30.006857-13.714286 30.006857-30.427428V233.636571c0-16.713143-12.854857-30.427429-29.988571-30.427428-17.152 0-30.445714 13.714286-30.445714 30.427428v556.726858c0 16.713143 13.293714 30.427429 30.427428 30.427428zM325.357714 751.36c17.152 0 29.988571-13.293714 29.988572-29.988571v-418.742858c0-16.694857-12.854857-29.988571-29.988572-29.988571-17.572571 0-30.427429 13.293714-30.427428 29.988571v418.742858c0 16.694857 12.854857 29.988571 30.427428 29.988571z m248.996572-46.281143c17.152 0 30.427429-13.293714 30.427428-30.006857V348.928c0-16.713143-13.275429-29.988571-30.427428-29.988571-17.133714 0-29.988571 13.275429-29.988572 29.988571v326.144c0 16.713143 12.854857 29.988571 29.988572 29.988571z m249.417143-76.726857c17.152 0 30.006857-13.714286 30.006857-30.427429v-171.849142c0-16.713143-12.854857-30.427429-29.988572-30.427429a29.988571 29.988571 0 0 0-30.427428 30.427429v171.849142a29.988571 29.988571 0 0 0 30.427428 30.427429z m-623.122286-33.846857c17.133714 0 29.988571-13.293714 29.988571-29.988572v-105.014857c0-16.713143-12.854857-29.988571-29.988571-29.988571-17.572571 0-30.427429 13.275429-30.427429 29.988571v104.996572c0 16.713143 12.854857 29.988571 30.427429 29.988571z"/>

</g>
</g></svg>