<svg width="128" height="128" viewBox="0 0 128 128" preserveAspectRatio="xMidYMid meet" xmlns:xlink="http://www.w3.org/1999/xlink" class="svg-icon" style="width: 1em; height: 1em;vertical-align: middle;fill: currentColor;overflow: hidden;" xmlns="http://www.w3.org/2000/svg"><g transform="translate(0, 0) scale(1) translate(0, 0)">
<g transform="translate(0, 0) scale(0.125) translate(0, 0)">

  <path d="M561.92 298.666667a128.042667 128.042667 0 0 1 241.493333 0H896a42.666667 42.666667 0 0 1 0 85.333333h-92.586667a128.042667 128.042667 0 0 1-241.493333 0H128a42.666667 42.666667 0 1 1 0-85.333333h433.92z m-341.333333 341.333333a128.042667 128.042667 0 0 1 241.493333 0H896a42.666667 42.666667 0 0 1 0 85.333333H462.08a128.042667 128.042667 0 0 1-241.493333 0H128a42.666667 42.666667 0 0 1 0-85.333333h92.586667zM682.666667 384a42.666667 42.666667 0 1 0 0-85.333333 42.666667 42.666667 0 0 0 0 85.333333z m-341.333334 341.333333a42.666667 42.666667 0 1 0 0-85.333333 42.666667 42.666667 0 0 0 0 85.333333z"
        fill="#000000"/>

</g>
</g></svg>