<svg width="128" height="128" viewBox="0 0 128 128" preserveAspectRatio="xMidYMid meet" xmlns="http://www.w3.org/2000/svg" xmlns:xlink="http://www.w3.org/1999/xlink"><g transform="translate(0, 0) scale(1) translate(0, 0)">
<g transform="translate(0, 0) scale(0.125) translate(0, 0)">

    <path stroke="none" fill="rgb(255, 255, 255)" d="M 0,113.78 L 113.78,113.78 113.78,-0 C 50.92,-0 0,50.92 0,113.78 Z M 0,568.89 L 113.78,568.89 113.78,455.11 0,455.11 0,568.89 Z M 227.56,1024 L 341.33,1024 341.33,910.22 227.56,910.22 227.56,1024 Z M 0,341.33 L 113.78,341.33 113.78,227.56 0,227.56 0,341.33 Z M 568.89,-0 L 455.11,-0 455.11,113.78 568.89,113.78 568.89,-0 Z M 910.22,-0 L 910.22,113.78 1024,113.78 C 1024,50.92 973.08,-0 910.22,-0 Z M 113.78,1024 L 113.78,910.22 0,910.22 C 0,973.08 50.92,1024 113.78,1024 Z M 0,796.44 L 113.78,796.44 113.78,682.67 0,682.67 0,796.44 Z M 341.33,-0 L 227.56,-0 227.56,113.78 341.33,113.78 341.33,-0 Z M 455.11,1024 L 568.89,1024 568.89,910.22 455.11,910.22 455.11,1024 Z M 910.22,568.89 L 1024,568.89 1024,455.11 910.22,455.11 910.22,568.89 Z M 910.22,1024 C 973.08,1024 1024,973.08 1024,910.22 L 910.22,910.22 910.22,1024 Z M 910.22,341.33 L 1024,341.33 1024,227.56 910.22,227.56 910.22,341.33 Z M 910.22,796.44 L 1024,796.44 1024,682.67 910.22,682.67 910.22,796.44 Z M 682.67,1024 L 796.44,1024 796.44,910.22 682.67,910.22 682.67,1024 Z M 682.67,113.78 L 796.44,113.78 796.44,-0 682.67,-0 682.67,113.78 Z M 682.67,113.78" />

</g>
</g></svg>
