<svg width="128" height="128" viewBox="0 0 128 128" preserveAspectRatio="xMidYMid meet" xmlns:xlink="http://www.w3.org/1999/xlink" class="svg-icon" style="width: 1em; height: 1em;vertical-align: middle;fill: currentColor;overflow: hidden;" xmlns="http://www.w3.org/2000/svg"><g transform="translate(0, 0) scale(1) translate(0, 0)">
<g transform="translate(0, 0) scale(0.125) translate(0, 0)">

  <path d="M810.666667 85.333333l-178.56 0c-17.493333-49.493333-64.426667-85.333333-120.106667-85.333333s-102.613333 35.84-120.106667 85.333333l-178.56 0c-47.146667 0-85.333333 38.186667-85.333333 85.333333l0 682.666667c0 47.146667 38.186667 85.333333 85.333333 85.333333l597.333333 0c47.146667 0 85.333333-38.186667 85.333333-85.333333l0-682.666667c0-47.146667-38.186667-85.333333-85.333333-85.333333zM512 85.333333c23.466667 0 42.666667 18.986667 42.666667 42.666667s-19.2 42.666667-42.666667 42.666667-42.666667-18.986667-42.666667-42.666667 19.2-42.666667 42.666667-42.666667zM810.666667 853.333333l-597.333333 0 0-682.666667 85.333333 0 0 128 426.666667 0 0-128 85.333333 0 0 682.666667z"/>

</g>
</g></svg>