<svg width="128" height="128" viewBox="0 0 128 128" preserveAspectRatio="xMidYMid meet" xmlns:xlink="http://www.w3.org/1999/xlink" xmlns="http://www.w3.org/2000/svg"><g transform="translate(0, 0) scale(1) translate(0, 0)">
<g transform="translate(0, 12.8) scale(0.2) translate(0, 0)">
<!-- Font Awesome Free 5.15.4 by @fontawesome - https://fontawesome.com License - https://fontawesome.com/license/free (Icons: CC BY 4.0, Fonts: SIL OFL 1.1, Code: MIT License) -->
  <path d="M476 480H324a36 36 0 0 1-36-36V96h-96v156a36 36 0 0 1-36 36H16a16 16 0 0 1-16-16v-32a16 16 0 0 1 16-16h112V68a36 36 0 0 1 36-36h152a36 36 0 0 1 36 36v348h96V260a36 36 0 0 1 36-36h140a16 16 0 0 1 16 16v32a16 16 0 0 1-16 16H512v156a36 36 0 0 1-36 36z"/>

</g>
</g></svg>